<?xml version="1.0" encoding="UTF-8"?>
<svg width="16" height="16" version="1.1" viewBox="0 0 16 16" xmlns="http://www.w3.org/2000/svg"><path d="m1.75 1a1.75 1.75 0 0 0-1.75 1.75v5.5c0 0.966 0.784 1.75 1.75 1.75h0.25v1.543a1.457 1.457 0 0 0 2.4863 1.0293l2.5742-2.5723h3.1895a1.75 1.75 0 0 0 1.75-1.75v-5.5a1.75 1.75 0 0 0-1.75-1.75h-8.5zm0 1.5h8.5a0.25 0.25 0 0 1 0.25 0.25v5.5a0.25 0.25 0 0 1-0.25 0.25h-3.5a0.75 0.75 0 0 0-0.5293 0.2207l-2.7207 2.7187v-2.1895a0.75 0.75 0 0 0-0.75-0.75h-1a0.25 0.25 0 0 1-0.25-0.25v-5.5a0.25 0.25 0 0 1 0.25-0.25zm12 0.5a0.75 0.75 0 0 0 0 1.5h0.5a0.25 0.25 0 0 1 0.25 0.25v5.5a0.25 0.25 0 0 1-0.25 0.25h-1a0.75 0.75 0 0 0-0.75 0.75v2.1895l-2.2207-2.2188a0.75 0.75 0 1 0-1.0586 1.0586l2.293 2.293a1.457 1.457 0 0 0 2.4863-1.0293v-1.543h0.25a1.75 1.75 0 0 0 1.75-1.75v-5.5c0-0.966-0.784-1.75-1.75-1.75h-0.5z"/></svg>
